<?xml version="1.0" encoding="UTF-8" standalone="no"?>
<!-- Created with Inkscape (http://www.inkscape.org/) -->

<svg
   version="1.1"
   id="svg2"
   width="773.8667"
   height="560.20001"
   viewBox="0 0 773.8667 560.20001"
   sodipodi:docname="PixArt.eps"
   xmlns:inkscape="http://www.inkscape.org/namespaces/inkscape"
   xmlns:sodipodi="http://sodipodi.sourceforge.net/DTD/sodipodi-0.dtd"
   xmlns="http://www.w3.org/2000/svg"
   xmlns:svg="http://www.w3.org/2000/svg">
  <defs
     id="defs6" />
  <sodipodi:namedview
     id="namedview4"
     pagecolor="#ffffff"
     bordercolor="#000000"
     borderopacity="0.25"
     inkscape:showpageshadow="2"
     inkscape:pageopacity="0.0"
     inkscape:pagecheckerboard="0"
     inkscape:deskcolor="#d1d1d1" />
  <g
     id="g8"
     inkscape:groupmode="layer"
     inkscape:label="ink_ext_XXXXXX"
     transform="matrix(1.3333333,0,0,-1.3333333,0,755.2)">
    <g
       id="g10"
       transform="scale(0.1)">
      <path
         d="m 5224.08,3900.61 94.67,-331.37 -12.08,-27.22 -663.91,359.06 13.25,23.2 307.71,94.68 94.67,189.35 260.36,-122.37 -94.67,-185.33"
         style="fill:#434845;fill-opacity:1;fill-rule:nonzero;stroke:none"
         id="path24" />
      <path
         d="m 4982.17,2802.84 -89.46,-204.04 -94.68,-165.68 -118.35,6.87 -639.06,-54.2 47.33,544.39 145.57,254.67 748.65,-382.01"
         style="fill:#434845;fill-opacity:1;fill-rule:nonzero;stroke:none"
         id="path26" />
      <path
         d="m 5306.67,3542.02 -324.5,-739.18 -748.65,382.01 409.24,716.23 663.91,-359.06"
         style="fill:#7acb32;fill-opacity:1;fill-rule:nonzero;stroke:none"
         id="path28" />
      <path
         d="m 4115.42,4101.8 v -426.05 h -110.31 l -662.73,6.63 h -115.03 v 419.42 h 888.07"
         style="fill:#434845;fill-opacity:1;fill-rule:nonzero;stroke:none"
         id="path30" />
      <path
         d="M 4265.47,3353.78 V 2368.27 H 3034.68 v 998.18 c 0,60.42 29.19,117.12 78.36,152.22 l 229.34,163.71 662.73,-6.63 200.1,-184.45 c 38.41,-35.41 60.26,-85.27 60.26,-137.52"
         style="fill:#cd176b;fill-opacity:1;fill-rule:nonzero;stroke:none"
         id="path32" />
      <path
         d="m 3271.37,4811.87 -142.02,-118.35 -189.35,23.67 -118.34,149.12 105.08,236.22 286.64,232.19 57.99,-522.85"
         style="fill:#e7c590;fill-opacity:1;fill-rule:nonzero;stroke:none"
         id="path34" />
      <path
         d="m 3153.02,4338.49 -331.36,-1869.86 -11.36,-82.84 h -130.66 v 130.17 l -24.85,76.46 v 0.23 l 166.87,1771.4 118.34,92.79 165.69,-47.34 47.33,-71.01"
         style="fill:#8a4535;fill-opacity:1;fill-rule:nonzero;stroke:none"
         id="path36" />
      <path
         d="M 3129.35,4693.52 3105.69,4409.5 2940,4456.84 v 260.35 l 189.35,-23.67"
         style="fill:#434845;fill-opacity:1;fill-rule:nonzero;stroke:none"
         id="path38" />
      <path
         d="m 3213.38,5334.72 -286.64,-232.19 249.95,561.43 z"
         style="fill:#cd176b;fill-opacity:1;fill-rule:nonzero;stroke:none"
         id="path40" />
      <path
         d="m 1472.51,3865.11 142.02,284.03 -47.34,213.02 133.97,31 173.73,40 51.84,-224.85 255.86,-153.85 -710.08,-189.35"
         style="fill:#434845;fill-opacity:1;fill-rule:nonzero;stroke:none"
         id="path42" />
      <path
         d="m 2452.42,3219.17 -831.02,-241.66 -148.89,887.6 710.08,189.35 269.83,-835.29"
         style="fill:#f57626;fill-opacity:1;fill-rule:nonzero;stroke:none"
         id="path44" />
      <path
         d="m 2679.64,2385.79 v -62.26 l -959.07,62.26 -99.17,591.72 831.02,241.66 202.37,-626.52 v -0.23 l -19.41,-206.63 h 44.26"
         style="fill:#3f3f48;fill-opacity:1;fill-rule:nonzero;stroke:none"
         id="path46" />
      <path
         d="m 1693.18,4312.71 c -83.7,128.92 -100.66,247.93 -50.4,353.77 38.33,76.7 146.8,105.91 251.69,134.13 16.44,4.44 32.73,8.81 48.4,13.32 64.08,18.35 103.5,82.79 87.87,143.61 -5.66,22.03 -17.29,37.65 -36.6,49.14 -21.71,12.89 -50.52,16 -78.99,8.44 l -680.91,-180.25 c -79.96,-21.17 -163.22,18.01 -197.88,93.15 -22,47.69 -28.58,96.64 -19.54,145.53 11.3,61.11 50.68,113.05 108.07,142.52 75.06,38.6 158.91,61.84 249.18,69.05 l 7.54,-94.4 c -77.74,-6.2 -149.55,-26.01 -213.45,-58.85 -31.1,-15.98 -52.33,-43.51 -58.24,-75.52 -5.49,-29.67 -1.43,-58.68 12.4,-88.66 15.37,-33.29 52.31,-50.69 87.69,-41.29 l 680.91,180.25 c 52.91,14 108.2,7.23 151.63,-18.61 41.06,-24.43 67.93,-60.42 79.89,-106.93 28.26,-110.02 -40.58,-225.84 -153.48,-258.2 -16.15,-4.63 -32.92,-9.16 -49.87,-13.71 -72.72,-19.58 -172.31,-46.39 -191.2,-84.19 -35.28,-74.31 -20.8,-159.88 44.68,-260.75 l -79.39,-51.55"
         style="fill:#f57626;fill-opacity:1;fill-rule:nonzero;stroke:none"
         id="path48" />
      <path
         d="m 459.43,1708.52 c 35.945,12.11 72.113,23.62 107.816,36.41 483.314,173.06 980.014,290.91 1487.914,363.69 422.09,60.47 846.28,84.56 1272.22,72.45 445.54,-12.66 887.01,-60.64 1318.44,-177.88 61.77,-16.8 97.38,-3.8 138.76,44.51 171.46,200.2 348.01,396.02 522.55,593.56 12.39,14.01 23.6,29.05 43.64,53.86 -659.91,147.84 -1314.12,165.56 -1972.11,85.46 C 2322.93,2652.06 1340.97,2318.31 453.254,1726.26 c 2.059,-5.9 4.113,-11.82 6.176,-17.74"
         style="fill:#d97f2e;fill-opacity:1;fill-rule:nonzero;stroke:none"
         id="path50" />
      <path
         d="m 1105.38,1733.16 c 110.53,16.84 220.87,35.09 331.63,50.28 335.25,45.97 671.81,51.34 1009.23,31.38 461.86,-27.32 916.38,-101.09 1363.97,-216.92 125.77,-32.54 249.57,-72.96 373.44,-112.38 39.88,-12.69 69.23,-9.27 98.56,23.16 71.9,79.42 146.64,156.26 219.87,234.48 8.06,8.6 13.72,19.47 25.47,36.51 -24.65,8.94 -44.27,18.19 -64.92,23.22 -353.69,86.16 -710.65,154.18 -1073.27,189.65 -387.13,37.88 -774.11,42.52 -1161.85,3.28 -328.28,-33.24 -649.07,-99.51 -963.77,-197 -54.38,-16.84 -107.3,-38.39 -160.9,-57.75 0.85,-2.64 1.7,-5.27 2.54,-7.91"
         style="fill:#d97f2e;fill-opacity:1;fill-rule:nonzero;stroke:none"
         id="path52" />
    </g>
  </g>
</svg>
